<svg width="168" height="44" viewBox="0 0 168 44" fill="none" xmlns="http://www.w3.org/2000/svg">
<path d="M167.49 7.49089V24.1605H162.549V7.49089H167.49ZM168 2.92562C168 3.32214 167.92 3.69722 167.761 4.05087C167.602 4.3938 167.384 4.69922 167.107 4.96713C166.831 5.22433 166.507 5.4333 166.135 5.59405C165.774 5.74408 165.386 5.8191 164.972 5.8191C164.568 5.8191 164.191 5.74408 163.84 5.59405C163.489 5.4333 163.176 5.22433 162.9 4.96713C162.634 4.69922 162.422 4.3938 162.262 4.05087C162.113 3.69722 162.039 3.32214 162.039 2.92562C162.039 2.51839 162.113 2.13796 162.262 1.78431C162.422 1.43066 162.634 1.11988 162.9 0.851967C163.176 0.584053 163.489 0.37508 163.84 0.225047C164.191 0.0750157 164.568 0 164.972 0C165.386 0 165.774 0.0750157 166.135 0.225047C166.507 0.37508 166.831 0.584053 167.107 0.851967C167.384 1.11988 167.602 1.43066 167.761 1.78431C167.92 2.13796 168 2.51839 168 2.92562Z" fill="#1D7ABB"/>
<path d="M154.466 17.3769C153.477 17.4198 152.665 17.5055 152.027 17.6341C151.389 17.7627 150.885 17.9235 150.513 18.1164C150.141 18.3093 149.881 18.5289 149.732 18.7754C149.594 19.0219 149.525 19.2898 149.525 19.5792C149.525 20.1472 149.679 20.549 149.987 20.7848C150.295 21.0098 150.747 21.1224 151.342 21.1224C151.979 21.1224 152.537 21.0098 153.015 20.7848C153.493 20.5597 153.977 20.1954 154.466 19.6917V17.3769ZM145.572 9.80565C146.571 8.91618 147.676 8.25711 148.887 7.82845C150.109 7.38907 151.416 7.16938 152.808 7.16938C153.807 7.16938 154.705 7.33548 155.502 7.6677C156.309 7.98919 156.989 8.44465 157.542 9.03406C158.105 9.61276 158.535 10.304 158.833 11.1077C159.13 11.9115 159.279 12.7902 159.279 13.744V24.1605H157.016C156.548 24.1605 156.192 24.0962 155.948 23.9676C155.714 23.839 155.518 23.5711 155.358 23.1639L155.008 22.2476C154.593 22.6012 154.195 22.912 153.812 23.1799C153.43 23.4479 153.031 23.6783 152.617 23.8712C152.213 24.0533 151.777 24.1873 151.31 24.273C150.853 24.3695 150.343 24.4177 149.78 24.4177C149.025 24.4177 148.34 24.3213 147.724 24.1284C147.107 23.9247 146.581 23.63 146.146 23.2442C145.721 22.8584 145.391 22.3816 145.157 21.8136C144.924 21.2349 144.807 20.5705 144.807 19.8203C144.807 19.2202 144.956 18.6147 145.253 18.0038C145.551 17.3823 146.066 16.8197 146.799 16.316C147.532 15.8016 148.521 15.3729 149.764 15.03C151.007 14.6871 152.574 14.4942 154.466 14.4513V13.744C154.466 12.7688 154.264 12.0669 153.86 11.6382C153.467 11.1988 152.904 10.9791 152.17 10.9791C151.586 10.9791 151.108 11.0434 150.736 11.172C150.364 11.3006 150.029 11.4453 149.732 11.606C149.445 11.7668 149.163 11.9115 148.887 12.0401C148.611 12.1687 148.281 12.233 147.899 12.233C147.559 12.233 147.272 12.1472 147.038 11.9758C146.804 11.8043 146.613 11.6007 146.464 11.3649L145.572 9.80565Z" fill="#1D7ABB"/>
<path d="M139.618 24.4177C138.831 24.4177 138.135 24.3052 137.53 24.0802C136.935 23.8444 136.43 23.5175 136.016 23.0996C135.612 22.6709 135.304 22.1565 135.091 21.5564C134.879 20.9563 134.772 20.2865 134.772 19.5471V10.9309H133.37C133.115 10.9309 132.897 10.8506 132.716 10.6898C132.536 10.5183 132.445 10.2719 132.445 9.95036V8.0053L135.075 7.49091L136.047 3.42396C136.175 2.90957 136.536 2.65237 137.131 2.65237H139.713V7.52306H143.81V10.9309H139.713V19.2095C139.713 19.5953 139.804 19.9168 139.984 20.174C140.176 20.4205 140.446 20.5437 140.797 20.5437C140.978 20.5437 141.127 20.5276 141.243 20.4955C141.371 20.4526 141.477 20.4097 141.562 20.3669C141.658 20.3133 141.743 20.2704 141.817 20.2383C141.902 20.1954 141.998 20.174 142.104 20.174C142.253 20.174 142.37 20.2115 142.455 20.2865C142.55 20.3508 142.646 20.458 142.742 20.608L144.24 22.971C143.602 23.4532 142.885 23.8176 142.088 24.0641C141.291 24.2999 140.468 24.4177 139.618 24.4177Z" fill="#1D7ABB"/>
<path d="M120.301 9.29129C120.62 8.99123 120.949 8.71259 121.289 8.4554C121.629 8.1982 121.99 7.98387 122.373 7.8124C122.766 7.63022 123.186 7.4909 123.632 7.39445C124.089 7.28729 124.583 7.23371 125.114 7.23371C126.017 7.23371 126.814 7.39446 127.505 7.71595C128.206 8.02673 128.796 8.46611 129.274 9.03409C129.752 9.59136 130.114 10.2611 130.358 11.0435C130.602 11.815 130.725 12.6563 130.725 13.5672V24.1605H125.784V13.5672C125.784 12.7527 125.598 12.1205 125.226 11.6704C124.854 11.2096 124.307 10.9792 123.584 10.9792C123.042 10.9792 122.532 11.097 122.054 11.3328C121.587 11.5578 121.13 11.8686 120.683 12.2651V24.1605H115.742V7.4909H118.803C119.419 7.4909 119.823 7.76953 120.014 8.3268L120.301 9.29129Z" fill="#1D7ABB"/>
<path d="M107.771 17.3769C106.782 17.4198 105.97 17.5055 105.332 17.6341C104.695 17.7627 104.19 17.9235 103.818 18.1164C103.446 18.3093 103.186 18.5289 103.037 18.7754C102.899 19.0219 102.83 19.2898 102.83 19.5792C102.83 20.1472 102.984 20.549 103.292 20.7848C103.6 21.0098 104.052 21.1224 104.647 21.1224C105.284 21.1224 105.842 21.0098 106.32 20.7848C106.798 20.5597 107.282 20.1954 107.771 19.6917V17.3769ZM98.877 9.80565C99.8758 8.91618 100.981 8.25711 102.192 7.82845C103.414 7.38907 104.721 7.16938 106.113 7.16938C107.112 7.16938 108.01 7.33548 108.807 7.6677C109.614 7.98919 110.294 8.44465 110.847 9.03406C111.41 9.61276 111.84 10.304 112.138 11.1077C112.435 11.9115 112.584 12.7902 112.584 13.744V24.1605H110.321C109.853 24.1605 109.497 24.0962 109.253 23.9676C109.019 23.839 108.823 23.5711 108.663 23.1639L108.313 22.2476C107.898 22.6012 107.5 22.912 107.117 23.1799C106.735 23.4479 106.336 23.6783 105.922 23.8712C105.518 24.0533 105.082 24.1873 104.615 24.273C104.158 24.3695 103.648 24.4177 103.085 24.4177C102.33 24.4177 101.645 24.3213 101.029 24.1284C100.412 23.9247 99.8864 23.63 99.4507 23.2442C99.0257 22.8584 98.6963 22.3816 98.4626 21.8136C98.2288 21.2349 98.1119 20.5705 98.1119 19.8203C98.1119 19.2202 98.2607 18.6147 98.5582 18.0038C98.8557 17.3823 99.371 16.8197 100.104 16.316C100.837 15.8016 101.826 15.3729 103.069 15.03C104.312 14.6871 105.879 14.4942 107.771 14.4513V13.744C107.771 12.7688 107.569 12.0669 107.165 11.6382C106.772 11.1988 106.209 10.9791 105.476 10.9791C104.891 10.9791 104.413 11.0434 104.041 11.172C103.669 11.3006 103.334 11.4453 103.037 11.606C102.75 11.7668 102.468 11.9115 102.192 12.0401C101.916 12.1687 101.587 12.233 101.204 12.233C100.864 12.233 100.577 12.1472 100.343 11.9758C100.11 11.8043 99.9183 11.6007 99.7695 11.3649L98.877 9.80565Z" fill="#1D7ABB"/>
<path d="M95.5518 11.1399C95.4243 11.3435 95.2862 11.4882 95.1374 11.5739C94.9993 11.6597 94.8186 11.7025 94.5955 11.7025C94.3617 11.7025 94.128 11.6543 93.8942 11.5578C93.6604 11.4507 93.4054 11.3382 93.1292 11.2203C92.8635 11.1024 92.5607 10.9952 92.2206 10.8988C91.8806 10.7916 91.4928 10.738 91.0571 10.738C90.4302 10.738 89.9467 10.8613 89.6067 11.1077C89.2773 11.3435 89.1126 11.6757 89.1126 12.1044C89.1126 12.4152 89.2189 12.6724 89.4314 12.876C89.6545 13.0796 89.9467 13.2618 90.308 13.4225C90.6693 13.5726 91.0784 13.7172 91.5353 13.8566C91.9922 13.9959 92.4597 14.1513 92.9379 14.3227C93.416 14.4942 93.8836 14.6978 94.3405 14.9336C94.7974 15.1586 95.2065 15.4426 95.5677 15.7855C95.929 16.1178 96.2159 16.525 96.4284 17.0072C96.6516 17.4895 96.7631 18.0682 96.7631 18.7433C96.7631 19.5685 96.6144 20.3294 96.3169 21.0259C96.0193 21.7225 95.5731 22.3226 94.978 22.8263C94.3936 23.33 93.6657 23.7212 92.7944 23.9998C91.9338 24.2784 90.9403 24.4177 89.8139 24.4177C89.2508 24.4177 88.6876 24.3642 88.1244 24.257C87.5613 24.1498 87.0141 24.0052 86.4828 23.823C85.9621 23.6408 85.4787 23.4265 85.0324 23.18C84.5861 22.9228 84.2036 22.6495 83.8848 22.3602L85.0324 20.5276C85.1599 20.3133 85.3193 20.1472 85.5105 20.0293C85.7124 19.9007 85.9674 19.8364 86.2756 19.8364C86.5625 19.8364 86.8175 19.9007 87.0406 20.0293C87.2744 20.1579 87.5241 20.2972 87.7897 20.4472C88.0554 20.5973 88.3635 20.7366 88.7142 20.8652C89.0754 20.9938 89.527 21.0581 90.0689 21.0581C90.4515 21.0581 90.7756 21.0206 91.0412 20.9456C91.3068 20.8598 91.5194 20.7473 91.6787 20.608C91.8381 20.4687 91.955 20.3133 92.0294 20.1418C92.1038 19.9704 92.141 19.7935 92.141 19.6114C92.141 19.2791 92.0294 19.0059 91.8063 18.7915C91.5831 18.5772 91.2909 18.395 90.9296 18.245C90.5684 18.0842 90.154 17.9396 89.6864 17.811C89.2295 17.6717 88.762 17.5163 88.2838 17.3448C87.8057 17.1733 87.3328 16.9697 86.8653 16.734C86.4084 16.4875 85.9993 16.182 85.638 15.8177C85.2768 15.4426 84.9846 14.9871 84.7614 14.4513C84.5383 13.9155 84.4267 13.2671 84.4267 12.5063C84.4267 11.799 84.5595 11.1292 84.8252 10.4969C85.1014 9.85391 85.5105 9.29129 86.0524 8.80904C86.5944 8.3268 87.2744 7.94636 88.0926 7.66773C88.9107 7.37838 89.8671 7.23371 90.9615 7.23371C91.5565 7.23371 92.1303 7.28729 92.6829 7.39445C93.246 7.50162 93.772 7.65165 94.2608 7.84455C94.7496 8.03745 95.1958 8.26785 95.5996 8.53577C96.0034 8.79297 96.3594 9.07696 96.6675 9.38774L95.5518 11.1399Z" fill="#1D7ABB"/>
<path d="M80.7732 0.128967V23.6439H75.9282V0.128967H80.7732Z" fill="#1D7ABB"/>
<path d="M68.11 17.0315C67.1408 17.0734 66.3436 17.1572 65.7183 17.283C65.093 17.4087 64.598 17.5659 64.2332 17.7545C63.8685 17.9431 63.6132 18.158 63.4673 18.399C63.3318 18.64 63.264 18.902 63.264 19.1849C63.264 19.7403 63.4152 20.1333 63.7174 20.3638C64.0196 20.5839 64.4625 20.6939 65.0461 20.6939C65.6714 20.6939 66.2185 20.5839 66.6875 20.3638C67.1564 20.1437 67.6306 19.7875 68.11 19.2949V17.0315ZM59.3873 9.62803C60.3669 8.75827 61.4507 8.11381 62.6388 7.69465C63.8372 7.26501 65.119 7.05019 66.4843 7.05019C67.4639 7.05019 68.3445 7.21262 69.1261 7.53747C69.9181 7.85184 70.5851 8.2972 71.127 8.87354C71.6793 9.43941 72.1014 10.1153 72.3932 10.9012C72.685 11.6872 72.8309 12.5464 72.8309 13.4791V23.6647H70.6111C70.1526 23.6647 69.8035 23.6018 69.5638 23.4761C69.3345 23.3503 69.1417 23.0884 68.9854 22.6901L68.6415 21.7942C68.235 22.14 67.8442 22.4439 67.4691 22.7059C67.0939 22.9678 66.7031 23.1931 66.2967 23.3818C65.9007 23.5599 65.4734 23.6909 65.0148 23.7747C64.5667 23.869 64.0665 23.9162 63.5142 23.9162C62.7742 23.9162 62.1021 23.8219 61.4976 23.6333C60.8932 23.4342 60.3773 23.146 59.95 22.7687C59.5332 22.3915 59.2101 21.9252 58.9809 21.3698C58.7516 20.8039 58.637 20.1542 58.637 19.4207C58.637 18.8339 58.7828 18.2418 59.0746 17.6445C59.3664 17.0367 59.8719 16.4866 60.591 15.994C61.31 15.4911 62.2792 15.0719 63.4985 14.7366C64.7178 14.4012 66.255 14.2126 68.11 14.1707V13.4791C68.11 12.5255 67.912 11.8391 67.516 11.4199C67.1304 10.9903 66.578 10.7755 65.859 10.7755C65.2858 10.7755 64.8168 10.8384 64.4521 10.9641C64.0873 11.0899 63.7591 11.2313 63.4673 11.3885C63.1859 11.5457 62.9097 11.6872 62.6388 11.8129C62.3678 11.9387 62.0447 12.0015 61.6696 12.0015C61.3361 12.0015 61.0547 11.9177 60.8254 11.75C60.5962 11.5824 60.4086 11.3833 60.2627 11.1527L59.3873 9.62803Z" fill="#1D7ABB"/>
<path d="M46.6266 19.2294C46.991 19.6275 47.3865 19.9104 47.8133 20.078C48.2401 20.2456 48.6878 20.3294 49.1562 20.3294C49.6038 20.3294 50.015 20.2404 50.3897 20.0623C50.7645 19.8842 51.0872 19.6013 51.3579 19.2137C51.6389 18.8155 51.8575 18.3022 52.0137 17.6736C52.1698 17.045 52.2479 16.2802 52.2479 15.3792C52.2479 14.5201 52.1854 13.7972 52.0605 13.2105C51.9356 12.6238 51.7586 12.1523 51.5296 11.7961C51.311 11.4295 51.0456 11.1675 50.7333 11.0104C50.421 10.8532 50.0723 10.7747 49.6871 10.7747C48.9792 10.7747 48.3963 10.9056 47.9383 11.1675C47.4802 11.4295 47.043 11.8119 46.6266 12.3147V19.2294ZM46.33 9.37602C46.9649 8.69503 47.6832 8.13977 48.4848 7.71022C49.2967 7.2702 50.2596 7.05019 51.3735 7.05019C52.2167 7.05019 52.9974 7.23877 53.7157 7.61593C54.4339 7.99309 55.0533 8.53788 55.5738 9.2503C56.0943 9.96272 56.5003 10.8375 56.7917 11.8747C57.0936 12.9014 57.2446 14.0696 57.2446 15.3792C57.2446 16.605 57.0728 17.7364 56.7293 18.7736C56.3962 19.8108 55.9225 20.7118 55.3083 21.4766C54.7046 22.2414 53.9759 22.8386 53.1223 23.2681C52.2791 23.6977 51.3422 23.9125 50.3117 23.9125C49.4685 23.9125 48.7606 23.792 48.1881 23.551C47.6156 23.31 47.0951 22.9853 46.6266 22.5767V28.8313H41.7861V7.36449H44.7841C45.3879 7.36449 45.7834 7.63689 45.9708 8.18167L46.33 9.37602Z" fill="#1D7ABB"/>
<path d="M33.9631 17.0315C32.9958 17.0734 32.2002 17.1572 31.5762 17.283C30.9521 17.4087 30.4581 17.5659 30.0941 17.7545C29.7301 17.9431 29.4753 18.158 29.3297 18.399C29.1945 18.64 29.1269 18.902 29.1269 19.1849C29.1269 19.7403 29.2777 20.1333 29.5793 20.3638C29.8809 20.5839 30.3229 20.6939 30.9053 20.6939C31.5294 20.6939 32.0754 20.5839 32.5434 20.3638C33.0114 20.1437 33.4847 19.7875 33.9631 19.2949V17.0315ZM25.2579 9.62803C26.2355 8.75827 27.3172 8.11381 28.5028 7.69465C29.6989 7.26501 30.9781 7.05019 32.3406 7.05019C33.3183 7.05019 34.1971 7.21262 34.9771 7.53747C35.7676 7.85184 36.4332 8.2972 36.974 8.87354C37.5253 9.43941 37.9465 10.1153 38.2377 10.9012C38.5289 11.6872 38.6745 12.5464 38.6745 13.4791V23.6647H36.4592C36.0016 23.6647 35.6532 23.6018 35.414 23.4761C35.1852 23.3503 34.9927 23.0884 34.8367 22.6901L34.4935 21.7942C34.0879 22.14 33.6979 22.4439 33.3235 22.7059C32.949 22.9678 32.559 23.1931 32.1534 23.3818C31.7582 23.5599 31.3318 23.6909 30.8741 23.7747C30.4269 23.869 29.9277 23.9162 29.3765 23.9162C28.638 23.9162 27.9672 23.8219 27.364 23.6333C26.7607 23.4342 26.2459 23.146 25.8195 22.7687C25.4035 22.3915 25.0811 21.9252 24.8522 21.3698C24.6234 20.8039 24.509 20.1542 24.509 19.4207C24.509 18.8339 24.6546 18.2418 24.9458 17.6445C25.2371 17.0367 25.7415 16.4866 26.4591 15.994C27.1768 15.4911 28.144 15.0719 29.3609 14.7366C30.5777 14.4012 32.1118 14.2126 33.9631 14.1707V13.4791C33.9631 12.5255 33.7655 11.8391 33.3703 11.4199C32.9854 10.9903 32.4342 10.7755 31.7166 10.7755C31.1446 10.7755 30.6765 10.8384 30.3125 10.9641C29.9485 11.0899 29.6209 11.2313 29.3297 11.3885C29.0489 11.5457 28.7732 11.6872 28.5028 11.8129C28.2324 11.9387 27.91 12.0015 27.5356 12.0015C27.2028 12.0015 26.9219 11.9177 26.6931 11.75C26.4643 11.5824 26.2771 11.3833 26.1315 11.1527L25.2579 9.62803Z" fill="#1D7ABB"/>
<path d="M5.3842 24.7792V16.5999C8.08173 16.7032 9.51435 17.2456 9.89347 17.5039V24.7792H5.3842Z" fill="#1D7ABB"/>
<path d="M5.3842 14.1284V5.87516H8.4002C9.27121 5.87516 9.9773 6.58686 9.9773 7.46532V11.7785C9.9773 12.0794 9.99065 12.409 10.3779 12.5523C10.6876 12.6669 10.9609 12.4568 11.0588 12.3373L17.3476 5.87516H20.8835C21.5892 5.87516 21.9456 6.73284 21.4508 7.24027L14.3434 14.5296L5.3842 14.1284Z" fill="#F5B73E"/>
<path d="M15.8563 24.9336C15.0645 15.3537 4.9575 15.3444 0 16.6145C3.18314 14.337 7.02164 12.0308 14.7388 14.1364C20.1542 15.6141 22.5463 21.3683 22.5463 23.5914L15.8563 24.9336Z" fill="#1D7ABB"/>
<path d="M8.58322 26.9806L24.9582 23.6088C25.1713 23.565 25.3507 23.7691 25.2706 23.9731C24.3018 26.4405 22.3573 27.4344 20.2578 27.9868C18.0318 28.5725 14.9269 28.5794 13.178 28.3226C11.9129 28.1368 10.2058 28.4345 9.39135 28.6777C9.25883 28.7173 9.11385 28.6643 9.04483 28.5435L8.39387 27.4045C8.29703 27.235 8.39322 27.0197 8.58322 26.9806Z" fill="#1D7ABB"/>
<path d="M22.5899 28.1594C25.7237 26.6363 26.1245 24.7125 26.1501 23.2069C27.2796 28.7668 22.4112 30.819 20.1112 31.1635C17.8112 31.508 14.8982 30.8354 10.9692 30.4486C7.82601 30.1392 5.50566 31.3539 4.73838 32C6.34329 29.8101 8.67622 29.4649 10.9446 29.1875C13.2129 28.91 18.6727 30.0632 22.5899 28.1594Z" fill="#1D7ABB"/>
<path d="M84.8789 41V33H86.0469V35.9727H86.1172C86.1849 35.8477 86.2826 35.7031 86.4102 35.5391C86.5378 35.375 86.7148 35.2318 86.9414 35.1094C87.168 34.9844 87.4674 34.9219 87.8398 34.9219C88.3242 34.9219 88.7565 35.0443 89.1367 35.2891C89.5169 35.5339 89.8151 35.8867 90.0313 36.3477C90.25 36.8086 90.3594 37.3633 90.3594 38.0117C90.3594 38.6602 90.2513 39.2161 90.0352 39.6797C89.819 40.1406 89.5221 40.4961 89.1445 40.7461C88.7669 40.9935 88.3359 41.1172 87.8516 41.1172C87.487 41.1172 87.1888 41.056 86.957 40.9336C86.7279 40.8112 86.5482 40.668 86.418 40.5039C86.2878 40.3398 86.1875 40.194 86.1172 40.0664H86.0195V41H84.8789ZM86.0234 38C86.0234 38.4219 86.0846 38.7917 86.207 39.1094C86.3294 39.4271 86.5065 39.6758 86.7383 39.8555C86.9701 40.0326 87.2539 40.1211 87.5898 40.1211C87.9388 40.1211 88.2305 40.0286 88.4648 39.8437C88.6992 39.6562 88.8763 39.4023 88.9961 39.082C89.1185 38.7617 89.1797 38.401 89.1797 38C89.1797 37.6042 89.1198 37.2487 89 36.9336C88.8828 36.6185 88.7057 36.3698 88.4688 36.1875C88.2344 36.0052 87.9414 35.9141 87.5898 35.9141C87.2513 35.9141 86.9648 36.0013 86.7305 36.1758C86.4987 36.3503 86.3229 36.5937 86.2031 36.9062C86.0833 37.2187 86.0234 37.5833 86.0234 38ZM92.2051 43.25C92.0306 43.25 91.8717 43.2357 91.7285 43.207C91.5853 43.181 91.4785 43.1523 91.4082 43.1211L91.6895 42.1641C91.903 42.2214 92.0931 42.2461 92.2598 42.2383C92.4264 42.2305 92.5736 42.168 92.7012 42.0508C92.8314 41.9336 92.946 41.7422 93.0449 41.4766L93.1895 41.0781L90.9941 35H92.2441L93.7637 39.6562H93.8262L95.3457 35H96.5996L94.127 41.8008C94.0124 42.1133 93.8665 42.3776 93.6895 42.5938C93.5124 42.8125 93.3014 42.9766 93.0566 43.0859C92.8118 43.1953 92.528 43.25 92.2051 43.25Z" fill="#192434"/>
<path d="M107.809 40.0733C107.809 40.3114 107.759 40.4937 107.659 40.622C107.56 40.7504 107.401 40.8719 107.183 40.9856C107.059 41.062 106.905 41.1306 106.72 41.1923C106.536 41.2541 106.332 41.306 106.109 41.3491C105.886 41.3922 105.655 41.4275 105.419 41.4559C105.182 41.4843 104.945 41.499 104.708 41.499C104.034 41.499 103.411 41.4108 102.837 41.2354C102.264 41.06 101.766 40.7857 101.344 40.4153C100.922 40.0439 100.593 39.5735 100.356 39.0032C100.118 38.4329 100 37.7529 100 36.9631C100 36.2115 100.121 35.5491 100.363 34.9729C100.604 34.3977 100.936 33.9195 101.358 33.5393C101.78 33.1591 102.271 32.871 102.831 32.676C103.391 32.481 103.992 32.384 104.637 32.384C105.064 32.384 105.45 32.4193 105.796 32.4908C106.142 32.5624 106.441 32.6574 106.692 32.776C106.943 32.8946 107.136 33.0376 107.269 33.2042C107.401 33.3708 107.468 33.5442 107.468 33.7245C107.468 33.9146 107.416 34.0812 107.312 34.2233C107.207 34.3664 107.089 34.4751 106.956 34.5516C106.71 34.3899 106.411 34.24 106.06 34.1018C105.709 33.9636 105.277 33.895 104.765 33.895C104.348 33.895 103.964 33.9646 103.613 34.1018C103.263 34.24 102.962 34.4369 102.71 34.6936C102.459 34.9504 102.262 35.2688 102.12 35.649C101.978 36.0292 101.907 36.4624 101.907 36.9474C101.907 37.4707 101.979 37.9224 102.12 38.3026C102.263 38.6828 102.459 38.9993 102.71 39.2511C102.962 39.503 103.261 39.6882 103.606 39.8077C103.952 39.9263 104.329 39.9861 104.737 39.9861C105.012 39.9861 105.264 39.9626 105.491 39.9145C105.719 39.8675 105.894 39.8097 106.018 39.7431V37.7627H104.198C104.15 37.6863 104.108 37.5873 104.07 37.4628C104.031 37.3394 104.013 37.2012 104.013 37.0493C104.013 36.8024 104.072 36.6162 104.191 36.4927C104.309 36.3693 104.463 36.3075 104.653 36.3075H107.043C107.279 36.3075 107.467 36.3742 107.605 36.5074C107.742 36.6407 107.811 36.8259 107.811 37.064V40.0733H107.809Z" fill="#192434"/>
<path d="M114.978 40.4945C114.902 40.6425 114.765 40.7728 114.565 40.8865C114.29 41.058 113.942 41.2001 113.52 41.3147C113.098 41.4284 112.617 41.4862 112.076 41.4862C111.582 41.4862 111.137 41.4313 110.739 41.3225C110.341 41.2138 110 41.0442 109.715 40.8159C109.431 40.5876 109.213 40.2976 109.061 39.9458C108.909 39.594 108.833 39.1756 108.833 38.6905V34.5387C108.909 34.5103 109.02 34.4838 109.167 34.4603C109.314 34.4368 109.478 34.425 109.658 34.425C109.99 34.425 110.236 34.4848 110.397 34.6034C110.558 34.722 110.639 34.9434 110.639 35.2668V38.6621C110.639 39.157 110.765 39.5107 111.016 39.7253C111.267 39.9389 111.624 40.0457 112.09 40.0457C112.384 40.0457 112.632 40.0173 112.836 39.9605C113.04 39.9036 113.194 39.8419 113.298 39.7753V34.5387C113.374 34.5103 113.486 34.4838 113.632 34.4603C113.779 34.4368 113.938 34.425 114.109 34.425C114.45 34.425 114.699 34.4848 114.856 34.6034C115.012 34.722 115.09 34.9434 115.09 35.2668V39.9458C115.091 40.1633 115.053 40.3466 114.978 40.4945Z" fill="#192434"/>
<path d="M116.102 32.4985C116.102 32.2232 116.198 31.987 116.393 31.792C116.587 31.597 116.836 31.5 117.139 31.5C117.442 31.5 117.689 31.598 117.879 31.792C118.068 31.987 118.163 32.2222 118.163 32.4985C118.163 32.7837 118.068 33.0237 117.879 33.2187C117.689 33.4137 117.443 33.5107 117.139 33.5107C116.835 33.5107 116.587 33.4137 116.393 33.2187C116.198 33.0247 116.102 32.7846 116.102 32.4985ZM116.243 34.5671C116.319 34.5485 116.431 34.524 116.577 34.4955C116.724 34.4671 116.883 34.4524 117.054 34.4524C117.395 34.4524 117.644 34.5142 117.801 34.6376C117.957 34.7611 118.035 34.9796 118.035 35.2942V41.2568C117.959 41.2754 117.848 41.2999 117.701 41.3284C117.554 41.3568 117.395 41.3715 117.224 41.3715C116.883 41.3715 116.634 41.3097 116.478 41.1863C116.321 41.0628 116.243 40.8443 116.243 40.5297V34.5671Z" fill="#192434"/>
<path d="M125.432 39.9596C125.432 40.1781 125.384 40.3545 125.289 40.4878C125.194 40.621 125.052 40.7494 124.862 40.8729C124.625 41.0247 124.312 41.1649 123.923 41.2932C123.534 41.4216 123.084 41.4863 122.572 41.4863C121.433 41.4863 120.531 41.1943 119.862 40.6093C119.194 40.0243 118.86 39.1286 118.86 37.9204C118.86 37.2933 118.95 36.7534 119.13 36.3016C119.31 35.8499 119.554 35.4766 119.863 35.1816C120.171 34.8867 120.534 34.6682 120.952 34.5251C121.369 34.382 121.819 34.3115 122.303 34.3115C122.559 34.3115 122.801 34.3379 123.028 34.3899C123.256 34.4418 123.459 34.5065 123.64 34.5819V31.9999C123.716 31.9715 123.827 31.945 123.974 31.9215C124.12 31.898 124.28 31.8862 124.451 31.8862C124.792 31.8862 125.041 31.948 125.197 32.0714C125.354 32.1949 125.432 32.4134 125.432 32.728V39.9596ZM123.64 36.0371C123.497 35.9518 123.332 35.8803 123.142 35.8235C122.953 35.7666 122.749 35.7382 122.531 35.7382C121.999 35.7382 121.558 35.9097 121.208 36.2517C120.857 36.5937 120.681 37.1551 120.681 37.9351C120.681 38.6671 120.849 39.2021 121.186 39.5402C121.522 39.8783 121.981 40.0468 122.559 40.0468C122.805 40.0468 123.016 40.0184 123.192 39.9616C123.367 39.9047 123.517 39.8381 123.64 39.7617V36.0371Z" fill="#192434"/>
<path d="M128.006 38.7044C128.138 39.1895 128.385 39.5412 128.745 39.7598C129.106 39.9783 129.551 40.088 130.082 40.088C130.481 40.088 130.848 40.0292 131.184 39.9097C131.52 39.7911 131.793 39.6647 132.002 39.5314C132.135 39.6079 132.243 39.7117 132.329 39.845C132.414 39.9783 132.457 40.1213 132.457 40.2732C132.457 40.4633 132.393 40.6319 132.265 40.7798C132.137 40.9278 131.961 41.0532 131.738 41.1581C131.515 41.2629 131.252 41.3433 130.949 41.4001C130.645 41.4569 130.317 41.4853 129.968 41.4853C129.408 41.4853 128.899 41.4089 128.438 41.257C127.978 41.1051 127.585 40.8739 127.258 40.5652C126.931 40.2566 126.675 39.8734 126.49 39.4168C126.305 38.9602 126.213 38.4281 126.213 37.8196C126.213 37.2297 126.303 36.7162 126.483 36.2792C126.663 35.8421 126.907 35.4756 127.216 35.1807C127.524 34.8857 127.882 34.6672 128.29 34.5242C128.697 34.3811 129.129 34.3105 129.585 34.3105C130.049 34.3105 130.476 34.384 130.865 34.532C131.253 34.68 131.585 34.8838 131.86 35.1454C132.135 35.4071 132.351 35.7206 132.507 36.0871C132.663 36.4536 132.742 36.8504 132.742 37.2777C132.742 37.5442 132.672 37.7441 132.535 37.8764C132.398 38.0097 132.206 38.0949 131.959 38.1331L128.006 38.7044ZM129.585 35.6657C129.119 35.6657 128.732 35.8206 128.418 36.1292C128.105 36.4379 127.929 36.8779 127.891 37.4482L131.049 36.9778C131.011 36.626 130.873 36.3193 130.637 36.0577C130.4 35.797 130.05 35.6657 129.585 35.6657Z" fill="#192434"/>
<path d="M136.07 39.9733C136.62 39.9733 137.023 39.8665 137.279 39.6519C137.535 39.4373 137.663 39.1698 137.663 38.8464C137.663 38.5515 137.563 38.3163 137.364 38.1399C137.165 37.9645 136.862 37.8146 136.453 37.6902L135.543 37.405C135.182 37.2914 134.855 37.162 134.562 37.0199C134.268 36.8769 134.016 36.7083 133.808 36.5133C133.599 36.3183 133.438 36.09 133.325 35.8284C133.21 35.5667 133.154 35.2551 133.154 34.8945C133.154 34.1243 133.443 33.5129 134.021 33.0611C134.6 32.6094 135.391 32.384 136.397 32.384C136.795 32.384 137.163 32.4154 137.499 32.4771C137.835 32.5389 138.127 32.6251 138.373 32.7339C138.62 32.8436 138.812 32.9788 138.95 33.1405C139.088 33.3022 139.156 33.4825 139.156 33.6824C139.156 33.8725 139.111 34.0371 139.021 34.1743C138.931 34.3125 138.82 34.4242 138.687 34.5094C138.459 34.3477 138.158 34.2076 137.784 34.0891C137.41 33.9705 137 33.9107 136.554 33.9107C136.061 33.9107 135.686 33.9989 135.43 34.1743C135.174 34.3507 135.046 34.5908 135.046 34.8945C135.046 35.1415 135.134 35.3316 135.309 35.4648C135.484 35.5981 135.762 35.7265 136.142 35.8499L136.953 36.1067C137.777 36.3536 138.417 36.6917 138.873 37.1199C139.328 37.5481 139.556 38.1282 139.556 38.8602C139.556 39.2502 139.479 39.6068 139.328 39.9302C139.177 40.2536 138.956 40.5319 138.666 40.7651C138.377 40.9983 138.017 41.1786 137.586 41.307C137.154 41.4353 136.663 41.5 136.113 41.5C135.678 41.5 135.276 41.4618 134.911 41.3863C134.546 41.3099 134.231 41.208 133.966 41.0796C133.7 40.9513 133.494 40.7994 133.347 40.623C133.2 40.4476 133.126 40.2546 133.126 40.0449C133.126 39.8263 133.191 39.6382 133.318 39.4814C133.446 39.3246 133.595 39.208 133.766 39.1316C134.003 39.3413 134.316 39.5334 134.705 39.7097C135.093 39.8861 135.549 39.9733 136.07 39.9733Z" fill="#192434"/>
<path d="M143.025 34.3105C143.955 34.3105 144.696 34.5104 145.251 34.9093C145.806 35.3091 146.084 35.9274 146.084 36.7632V40.0586C146.084 40.2869 146.027 40.4672 145.913 40.6005C145.798 40.7338 145.657 40.8523 145.486 40.9572C145.22 41.1189 144.884 41.2472 144.475 41.3423C144.068 41.4373 143.603 41.4853 143.081 41.4853C142.132 41.4853 141.386 41.3021 140.841 40.9366C140.295 40.5711 140.023 40.0214 140.023 39.2894C140.023 38.6525 140.224 38.1645 140.628 37.8274C141.03 37.4903 141.616 37.2836 142.384 37.2071L144.333 37.0072V36.7505C144.333 36.3889 144.203 36.1224 143.942 35.9519C143.681 35.7804 143.314 35.6951 142.84 35.6951C142.47 35.6951 142.11 35.7402 141.759 35.8304C141.408 35.9205 141.096 36.0322 140.82 36.1655C140.715 36.0891 140.628 35.9871 140.557 35.8588C140.487 35.7304 140.451 35.5903 140.451 35.4384C140.451 35.2483 140.496 35.0935 140.586 34.9749C140.675 34.8563 140.82 34.7495 141.019 34.6535C141.294 34.5398 141.608 34.4536 141.958 34.3968C142.309 34.339 142.665 34.3105 143.025 34.3105ZM143.082 40.1164C143.357 40.1164 143.609 40.09 143.836 40.038C144.064 39.9861 144.23 39.9214 144.334 39.846V38.2615L142.954 38.3899C142.575 38.4281 142.286 38.5114 142.086 38.6397C141.887 38.7681 141.787 38.97 141.787 39.2463C141.787 39.5226 141.889 39.7362 142.093 39.8881C142.297 40.04 142.628 40.1164 143.082 40.1164Z" fill="#192434"/>
<path d="M151.254 36.0224C151.021 35.8323 150.706 35.7373 150.308 35.7373C150.032 35.7373 149.779 35.7706 149.547 35.8372C149.314 35.9039 149.113 35.9891 148.942 36.094V41.258C148.857 41.2766 148.742 41.3011 148.601 41.3295C148.458 41.358 148.297 41.3727 148.117 41.3727C147.785 41.3727 147.539 41.3109 147.377 41.1875C147.216 41.064 147.136 40.8455 147.136 40.5309V35.9509C147.136 35.7226 147.183 35.5374 147.279 35.3943C147.374 35.2512 147.52 35.1141 147.719 34.9808C147.994 34.7907 148.359 34.631 148.815 34.5026C149.27 34.3742 149.772 34.3105 150.322 34.3105C151.299 34.3105 152.055 34.5271 152.591 34.9592C153.127 35.3924 153.394 36.0273 153.394 36.8632V41.2561C153.318 41.2747 153.207 41.2992 153.06 41.3276C152.913 41.356 152.754 41.3707 152.583 41.3707C152.242 41.3707 151.993 41.309 151.837 41.1855C151.681 41.062 151.602 40.8435 151.602 40.529V36.921C151.602 36.5124 151.486 36.2125 151.254 36.0224Z" fill="#192434"/>
<path d="M156.573 39.8309C156.757 39.9642 157.016 40.0308 157.347 40.0308C157.509 40.0308 157.672 40.0122 157.838 39.974C158.004 39.9358 158.153 39.8887 158.285 39.8309C158.362 39.9073 158.425 39.9995 158.478 40.1092C158.53 40.2189 158.556 40.3444 158.556 40.4874C158.556 40.7726 158.428 41.0078 158.172 41.1939C157.916 41.3791 157.504 41.4722 156.934 41.4722C156.185 41.4722 155.594 41.3037 155.164 40.9656C154.732 40.6285 154.517 40.069 154.517 39.29V32.7414C154.593 32.7227 154.704 32.6982 154.851 32.6698C154.997 32.6414 155.157 32.6267 155.328 32.6267C155.66 32.6267 155.904 32.6884 156.061 32.8119C156.217 32.9354 156.295 33.1539 156.295 33.4684V34.6522H158.386C158.433 34.7286 158.476 34.8285 158.514 34.952C158.552 35.0755 158.571 35.2087 158.571 35.3518C158.571 35.5987 158.514 35.78 158.4 35.8937C158.285 36.0074 158.134 36.0652 157.944 36.0652H156.294V39.1744C156.295 39.4791 156.388 39.6976 156.573 39.8309Z" fill="#192434"/>
<path d="M161.899 34.3105C162.828 34.3105 163.57 34.5104 164.125 34.9093C164.68 35.3091 164.957 35.9274 164.957 36.7632V40.0586C164.957 40.2869 164.901 40.4672 164.786 40.6005C164.672 40.7338 164.53 40.8523 164.359 40.9572C164.094 41.1189 163.757 41.2472 163.349 41.3423C162.942 41.4373 162.476 41.4853 161.955 41.4853C161.006 41.4853 160.259 41.3021 159.714 40.9366C159.169 40.5711 158.896 40.0214 158.896 39.2894C158.896 38.6525 159.098 38.1645 159.501 37.8274C159.904 37.4903 160.49 37.2836 161.258 37.2071L163.206 37.0072V36.7505C163.206 36.3889 163.076 36.1224 162.815 35.9519C162.555 35.7804 162.187 35.6951 161.713 35.6951C161.344 35.6951 160.983 35.7402 160.633 35.8304C160.282 35.9205 159.969 36.0322 159.694 36.1655C159.589 36.0891 159.501 35.9871 159.431 35.8588C159.36 35.7304 159.324 35.5903 159.324 35.4384C159.324 35.2483 159.369 35.0935 159.459 34.9749C159.549 34.8563 159.694 34.7495 159.893 34.6535C160.168 34.5398 160.481 34.4536 160.832 34.3968C161.184 34.339 161.539 34.3105 161.899 34.3105ZM161.957 40.1164C162.231 40.1164 162.483 40.09 162.711 40.038C162.939 39.9861 163.105 39.9214 163.208 39.846V38.2615L161.829 38.3899C161.45 38.4281 161.16 38.5114 160.961 38.6397C160.762 38.7681 160.662 38.97 160.662 39.2463C160.662 39.5226 160.764 39.7362 160.968 39.8881C161.172 40.04 161.501 40.1164 161.957 40.1164Z" fill="#192434"/>
<path d="M165.938 32.4985C165.938 32.2232 166.035 31.987 166.23 31.792C166.424 31.597 166.673 31.5 166.976 31.5C167.279 31.5 167.526 31.598 167.716 31.792C167.905 31.987 168 32.2222 168 32.4985C168 32.7837 167.905 33.0237 167.716 33.2187C167.526 33.4137 167.28 33.5107 166.976 33.5107C166.672 33.5107 166.424 33.4137 166.23 33.2187C166.036 33.0247 165.938 32.7846 165.938 32.4985ZM166.081 34.5671C166.157 34.5485 166.269 34.524 166.415 34.4955C166.562 34.4671 166.721 34.4524 166.892 34.4524C167.233 34.4524 167.482 34.5142 167.639 34.6376C167.795 34.7611 167.873 34.9796 167.873 35.2942V41.2568C167.797 41.2754 167.686 41.2999 167.539 41.3284C167.391 41.3568 167.233 41.3715 167.062 41.3715C166.721 41.3715 166.472 41.3097 166.316 41.1863C166.159 41.0628 166.081 40.8443 166.081 40.5297V34.5671Z" fill="#192434"/>
</svg>
