<svg width="28" height="28" viewBox="0 0 28 28" fill="none" xmlns="http://www.w3.org/2000/svg">
<path d="M20.6671 11.058C22.0985 11.058 23.4547 11.3803 24.6671 11.9562V7.7782C24.6671 6.98678 24.3155 6.23626 23.7075 5.72961L18.3742 1.28516C17.3853 0.461058 15.9488 0.461058 14.9599 1.28516L10.3742 5.10656C10.2894 5.17721 10.2014 5.2418 10.1106 5.30034L10.1106 22.6337C10.2014 22.5751 10.2894 22.5105 10.3742 22.4399L11.4084 21.578C11.3591 21.1894 11.3337 20.7934 11.3337 20.3914C11.3337 15.2367 15.5124 11.058 20.6671 11.058Z" fill="#0077B6"/>
<path d="M7.44391 5.42792C7.27418 5.34024 7.11176 5.23312 6.9599 5.10657L2.85397 1.68496C1.98553 0.961259 0.667053 1.5788 0.667053 2.70925V15.9469C0.667053 16.7383 1.01858 17.4888 1.62656 17.9955L6.9599 22.4399C7.11176 22.5664 7.27418 22.6736 7.44391 22.7613L7.44391 5.42792Z" fill="#0077B6"/>
<path fill-rule="evenodd" clip-rule="evenodd" d="M27.3337 20.3914C27.3337 24.0733 24.349 27.058 20.6671 27.058C16.9852 27.058 14.0004 24.0733 14.0004 20.3914C14.0004 16.7095 16.9852 13.7247 20.6671 13.7247C24.349 13.7247 27.3337 16.7095 27.3337 20.3914ZM23.4812 18.6128C23.8252 18.9126 23.8458 19.418 23.5271 19.7417L20.6179 22.6915C20.1368 23.1801 19.328 23.1801 18.8469 22.6915L17.2524 21.0718C16.9338 20.7482 16.9543 20.2428 17.2983 19.943C17.6423 19.6432 18.1795 19.6626 18.4981 19.9862L19.7153 21.0718L22.2815 18.6561C22.6001 18.3324 23.1372 18.3131 23.4812 18.6128Z" fill="#F1C40F"/>
</svg>
