<svg width="23" height="28" viewBox="0 0 23 28" fill="none" xmlns="http://www.w3.org/2000/svg">
<path d="M6.66728 0.666754C5.34948 0.667782 4.65873 0.684525 4.1233 0.957336C3.62154 1.213 3.21359 1.62095 2.95793 2.12271C2.68511 2.65814 2.66837 3.34889 2.66734 4.66669C1.19458 4.66669 0.000610352 5.86059 0.000610352 7.33335C0.000610352 8.80611 1.19452 10 2.66728 10V18C1.19452 18 0.000610352 19.1939 0.000610352 20.6667C0.000610352 22.1394 1.19452 23.3334 2.66728 23.3334C2.6683 24.6512 2.68511 25.3419 2.95793 25.8773C3.21359 26.3791 3.62154 26.787 4.1233 27.0427C4.65873 27.3155 5.34948 27.3323 6.66728 27.3333V0.666754Z" fill="#F1C40F"/>
<path d="M9.33394 27.3334H18.4006C19.8941 27.3334 20.6408 27.3334 21.2113 27.0427C21.713 26.787 22.121 26.3791 22.3766 25.8773C22.6673 25.3069 22.6673 24.5602 22.6673 23.0667V4.93335C22.6673 3.43988 22.6673 2.69314 22.3766 2.12271C22.121 1.62095 21.713 1.213 21.2113 0.957336C20.6408 0.666687 19.8941 0.666687 18.4006 0.666687H9.33394V27.3334Z" fill="#0077B6"/>
</svg>
