<svg width="30" height="24" viewBox="0 0 30 24" fill="none" xmlns="http://www.w3.org/2000/svg">
<path d="M29.3999 5.89038V19.52C29.3999 20.6219 28.9789 21.6822 28.223 22.4839C27.467 23.2856 26.4333 23.7681 25.3333 23.8328L25.0799 23.84H4.91985C3.81795 23.84 2.75767 23.419 1.95596 22.6631C1.15424 21.9072 0.671699 20.8734 0.607054 19.7734L0.599854 19.52V5.89038L14.2007 14.9581L14.3677 15.0531C14.5645 15.1493 14.7808 15.1993 14.9999 15.1993C15.219 15.1993 15.4352 15.1493 15.632 15.0531L15.7991 14.9581L29.3999 5.89038Z" fill="#0077B6"/>
<path d="M25.0797 0.799988C26.6349 0.799988 27.9986 1.62079 28.7589 2.85487L14.9997 12.0277L1.24054 2.85487C1.60168 2.26853 2.09776 1.77703 2.68741 1.42133C3.27707 1.06564 3.94321 0.856057 4.6303 0.810068L4.91974 0.799988H25.0797Z" fill="#F1C40F"/>
</svg>
