<svg width="14" height="14" viewBox="0 0 14 14" fill="none" xmlns="http://www.w3.org/2000/svg">
<path fill-rule="evenodd" clip-rule="evenodd" d="M8.4739 11.3513C8.82047 11.178 9.20065 11.0824 9.58796 11.071C9.97526 11.0596 10.3604 11.1327 10.7166 11.2853L10.8592 11.352L12.6312 12.2373C12.7834 12.3133 12.9008 12.4446 12.9594 12.6044C13.0179 12.7641 13.0132 12.9402 12.9461 13.0965C12.8791 13.2529 12.7548 13.3777 12.5987 13.4454C12.4426 13.5131 12.2665 13.5185 12.1066 13.4607L12.0352 13.43L10.2626 12.544C10.0963 12.4609 9.91457 12.4134 9.72892 12.4047C9.54328 12.396 9.35786 12.4262 9.18457 12.4933L9.0699 12.544L8.19257 12.9833C7.84586 13.1566 7.46554 13.2522 7.07811 13.2635C6.69068 13.2748 6.30544 13.2014 5.94923 13.0487L5.80723 12.9833L4.92923 12.544C4.763 12.4609 4.58123 12.4134 4.39559 12.4047C4.20994 12.396 4.02453 12.4262 3.85123 12.4933L3.73657 12.544L1.96457 13.4307C1.81234 13.5076 1.63638 13.5233 1.47293 13.4745C1.30947 13.4257 1.17095 13.3161 1.08587 13.1682C1.0008 13.0204 0.975638 12.8455 1.01558 12.6797C1.05551 12.5138 1.15751 12.3696 1.30057 12.2767L1.36857 12.2373L3.14057 11.3513C3.48714 11.178 3.86731 11.0824 4.25462 11.071C4.64193 11.0596 5.02707 11.1327 5.38323 11.2853L5.5259 11.352L6.40323 11.7907C6.56955 11.8739 6.75144 11.9213 6.93721 11.9301C7.12298 11.9388 7.30851 11.9086 7.4819 11.8413L7.5959 11.7907L8.4739 11.3513ZM7.66657 0.833984C7.84338 0.833984 8.01295 0.904222 8.13797 1.02925C8.263 1.15427 8.33323 1.32384 8.33323 1.50065V2.38065L10.5526 2.74998C10.8638 2.80205 11.1464 2.96279 11.3503 3.20362C11.5541 3.44446 11.666 3.74979 11.6659 4.06532V6.35332L13.0392 6.81065C13.1486 6.84714 13.2492 6.90593 13.3347 6.9833C13.4202 7.06067 13.4887 7.15494 13.5359 7.26015C13.5831 7.36535 13.6079 7.47921 13.6088 7.5945C13.6097 7.7098 13.5867 7.82404 13.5412 7.92998L12.0952 11.3033L10.8592 10.6847C10.4889 10.4995 10.0806 10.4031 9.66657 10.4031C9.25254 10.4031 8.84421 10.4995 8.4739 10.6847L7.5959 11.124C7.41075 11.2166 7.20658 11.2648 6.99957 11.2648C6.79256 11.2648 6.58839 11.2166 6.40323 11.124L5.5259 10.6847C5.15559 10.4995 4.74726 10.4031 4.33323 10.4031C3.91921 10.4031 3.51087 10.4995 3.14057 10.6847L2.2939 11.1087L0.5219 8.00798C0.460733 7.90094 0.42408 7.78165 0.414585 7.65873C0.405089 7.5358 0.422988 7.4123 0.46699 7.29713C0.510992 7.18196 0.580002 7.07799 0.669043 6.99271C0.758083 6.90743 0.864937 6.84298 0.9819 6.80398L2.33323 6.35332V4.06532C2.33317 3.74979 2.445 3.44446 2.64886 3.20362C2.85271 2.96279 3.13536 2.80205 3.44657 2.74998L5.66657 2.38065V1.50065C5.66657 1.32384 5.7368 1.15427 5.86183 1.02925C5.98685 0.904222 6.15642 0.833984 6.33323 0.833984H7.66657ZM6.9999 3.50998L3.66657 4.06532V5.90932L6.5779 4.93865C6.85161 4.84741 7.14753 4.84741 7.42123 4.93865L10.3332 5.90932V4.06532L6.9999 3.50998Z" fill="#192739" fill-opacity="0.9"/>
</svg>
