<svg width="28" height="28" viewBox="0 0 28 28" fill="none" xmlns="http://www.w3.org/2000/svg">
<rect width="28" height="28" rx="8" fill="#0077B6"/>
<path fill-rule="evenodd" clip-rule="evenodd" d="M16.1951 20.275C16.715 20.0151 17.2852 19.8716 17.8662 19.8545C18.4471 19.8374 19.0249 19.9471 19.5591 20.176L19.7731 20.276L22.4311 21.604C22.6594 21.718 22.8355 21.915 22.9233 22.1546C23.0111 22.3942 23.004 22.6583 22.9034 22.8929C22.8029 23.1274 22.6164 23.3146 22.3823 23.4161C22.1482 23.5177 21.8841 23.5259 21.6441 23.439L21.5371 23.393L18.8781 22.064C18.6288 21.9394 18.3561 21.8682 18.0776 21.8551C17.7992 21.842 17.521 21.8873 17.2611 21.988L17.0891 22.064L15.7731 22.723C15.253 22.9829 14.6826 23.1263 14.1014 23.1433C13.5203 23.1602 12.9424 23.0502 12.4081 22.821L12.1951 22.723L10.8781 22.064C10.6288 21.9394 10.3561 21.8682 10.0776 21.8551C9.79917 21.842 9.52104 21.8873 9.2611 21.988L9.0891 22.064L6.4311 23.394C6.20276 23.5095 5.93883 23.533 5.69365 23.4598C5.44846 23.3866 5.24068 23.2222 5.11307 23.0004C4.98545 22.7786 4.94771 22.5163 5.00762 22.2675C5.06752 22.0188 5.22051 21.8024 5.4351 21.663L5.5371 21.604L8.1951 20.275C8.71496 20.0151 9.28522 19.8716 9.86618 19.8545C10.4471 19.8374 11.0249 19.9471 11.5591 20.176L11.7731 20.276L13.0891 20.934C13.3386 21.0588 13.6114 21.1301 13.8901 21.1432C14.1687 21.1562 14.447 21.1109 14.7071 21.01L14.8781 20.934L16.1951 20.275ZM14.9841 4.49902C15.2493 4.49902 15.5037 4.60438 15.6912 4.79192C15.8787 4.97945 15.9841 5.23381 15.9841 5.49902V6.81902L19.3131 7.37302C19.7799 7.45112 20.2039 7.69223 20.5097 8.05348C20.8154 8.41474 20.9832 8.87273 20.9831 9.34602V12.778L23.0431 13.464C23.2072 13.5188 23.3581 13.6069 23.4863 13.723C23.6146 13.8391 23.7173 13.9805 23.7881 14.1383C23.8589 14.2961 23.8961 14.4669 23.8975 14.6398C23.8989 14.8128 23.8643 14.9841 23.7961 15.143L21.6271 20.203L19.7731 19.275C19.2176 18.9973 18.6051 18.8527 17.9841 18.8527C17.3631 18.8527 16.7506 18.9973 16.1951 19.275L14.8781 19.934C14.6004 20.0729 14.2941 20.1452 13.9836 20.1452C13.6731 20.1452 13.3668 20.0729 13.0891 19.934L11.7731 19.275C11.2176 18.9973 10.6051 18.8527 9.9841 18.8527C9.36307 18.8527 8.75056 18.9973 8.1951 19.275L6.9251 19.911L4.2671 15.26C4.17535 15.0995 4.12037 14.9205 4.10613 14.7361C4.09189 14.5518 4.11873 14.3665 4.18474 14.1937C4.25074 14.021 4.35426 13.865 4.48782 13.7371C4.62138 13.6092 4.78166 13.5125 4.9571 13.454L6.9841 12.778V9.34602C6.98401 8.87273 7.15176 8.41474 7.45754 8.05348C7.76331 7.69223 8.1873 7.45112 8.6541 7.37302L11.9841 6.81902V5.49902C11.9841 5.23381 12.0895 4.97945 12.277 4.79192C12.4645 4.60438 12.7189 4.49902 12.9841 4.49902H14.9841ZM13.9841 8.51302L8.9841 9.34602V12.112L13.3511 10.656C13.7617 10.5192 14.2055 10.5192 14.6161 10.656L18.9841 12.112V9.34602L13.9841 8.51302Z" fill="white"/>
</svg>
