<svg width="16" height="14" viewBox="0 0 16 14" fill="none" xmlns="http://www.w3.org/2000/svg">
<path d="M10.6667 3.66667C10.6667 3.04669 10.6667 2.7367 10.5986 2.48236C10.4136 1.79218 9.87453 1.25308 9.18435 1.06815C8.93001 1 8.62002 1 8.00004 1C7.38006 1 7.07007 1 6.81574 1.06815C6.12555 1.25308 5.58646 1.79218 5.40152 2.48236C5.33337 2.7367 5.33337 3.04669 5.33337 3.66667M8.53337 10.6667H11.8C11.9867 10.6667 12.0801 10.6667 12.1514 10.6303C12.2141 10.5984 12.2651 10.5474 12.297 10.4847C12.3334 10.4134 12.3334 10.32 12.3334 10.1333V8.53333C12.3334 8.34665 12.3334 8.25331 12.297 8.182C12.2651 8.11928 12.2141 8.06829 12.1514 8.03633C12.0801 8 11.9867 8 11.8 8H8.53337C8.34669 8 8.25335 8 8.18204 8.03633C8.11932 8.06829 8.06833 8.11928 8.03637 8.182C8.00004 8.25331 8.00004 8.34665 8.00004 8.53333V10.1333C8.00004 10.32 8.00004 10.4134 8.03637 10.4847C8.06833 10.5474 8.11932 10.5984 8.18204 10.6303C8.25335 10.6667 8.34669 10.6667 8.53337 10.6667ZM4.53337 13H11.4667C12.5868 13 13.1469 13 13.5747 12.782C13.951 12.5903 14.257 12.2843 14.4487 11.908C14.6667 11.4802 14.6667 10.9201 14.6667 9.8V6.86667C14.6667 5.74656 14.6667 5.18651 14.4487 4.75869C14.257 4.38236 13.951 4.0764 13.5747 3.88465C13.1469 3.66667 12.5868 3.66667 11.4667 3.66667H4.53337C3.41327 3.66667 2.85322 3.66667 2.42539 3.88465C2.04907 4.0764 1.74311 4.38236 1.55136 4.75869C1.33337 5.18651 1.33337 5.74656 1.33337 6.86667V9.8C1.33337 10.9201 1.33337 11.4802 1.55136 11.908C1.74311 12.2843 2.04907 12.5903 2.42539 12.782C2.85322 13 3.41327 13 4.53337 13Z" stroke="white" stroke-width="1.5" stroke-linecap="round" stroke-linejoin="round"/>
</svg>
